<?xml version="1.0" encoding="UTF-8" standalone="no"?>
<svg xmlns:svg="http://www.w3.org/2000/svg" xmlns="http://www.w3.org/2000/svg"
     xmlns:xlink="http://www.w3.org/1999/xlink" version="1.0" width="128px" height="128px" viewBox="0 0 128 128"
     xml:space="preserve"><rect x="0" y="0" width="100%" height="100%" fill="#FFFFFF" fill-opacity="0"/>
    <g><path d="M75.5 9.46C74.12 12.7 64.3 19.7 64.13 19.8c-.17-.1-10-7.1-11.37-10.34A6.4 6.4 0 0 1 64.12 3.6 6.4 6.4 0 0 1 75.5 9.45zm25.74 13c-2.8 2.12-14.8 3.25-15 3.27-.1-.18-5.1-11.14-4.7-14.64a6.4 6.4 0 0 1 12.8.6 6.4 6.4 0 0 1 6.9 10.7zm15.8 24.13c-3.5.4-14.45-4.6-14.64-4.7.02-.2 1.16-12.2 3.27-15a6.4 6.4 0 0 1 10.77 6.9 6.4 6.4 0 0 1 .6 12.7zm1.74 28.9c-3.24-1.4-10.22-11.2-10.34-11.4.12-.2 7.1-10 10.34-11.4a6.4 6.4 0 0 1 5.87 11.3 6.4 6.4 0 0 1-5.87 11.34zm-13.1 25.6c-2.12-2.8-3.26-14.8-3.28-15 .2-.1 11.15-5.1 14.64-4.7a6.4 6.4 0 0 1-.6 12.8 6.4 6.4 0 0 1-10.77 6.9zm-24.13 15.8c-.43-3.5 4.6-14.5 4.67-14.7.2 0 12.2 1.1 15.02 3.2a6.4 6.4 0 0 1-6.92 10.77 6.4 6.4 0 0 1-12.77.6zm-28.8 1.6c1.38-3.3 11.2-10.2 11.37-10.4.17.1 10 7.1 11.37 10.3a6.4 6.4 0 0 1-11.4 5.84 6.4 6.4 0 0 1-11.4-5.87zM27 105.5c2.82-2.12 14.82-3.25 15.02-3.27.1.17 5.1 11.13 4.68 14.63a6.4 6.4 0 0 1-12.78-.6 6.4 6.4 0 0 1-6.9-10.77zM11.2 81.4c3.5-.43 14.46 4.6 14.64 4.67-.02.2-1.16 12.2-3.27 15.1a6.4 6.4 0 0 1-10.77-6.9 6.4 6.4 0 0 1-.6-12.8zM9.47 52.7C12.7 54.1 19.7 63.9 19.8 64.08c-.1.18-7.1 10-10.3 11.38a6.4 6.4 0 0 1-5.9-11.4 6.4 6.4 0 0 1 5.9-11.4zm13.1-25.85c2.12 2.8 3.26 14.8 3.28 15-.2.1-11.15 5.1-14.64 4.6a6.4 6.4 0 0 1 .6-12.77 6.4 6.4 0 0 1 10.8-6.9zM46.7 11.1c.43 3.48-4.6 14.44-4.67 14.63-.2-.02-12.2-1.16-15.02-3.27a6.4 6.4 0 0 1 7-10.76 6.4 6.4 0 0 1 12.8-.6z" fill="#59A0F3" fill-opacity="1"/>
        <animateTransform attributeName="transform" type="rotate" from="0 64 64" to="30 64 64" dur="900ms"
                          repeatCount="indefinite"></animateTransform></g></svg>